<svg width="50" height="50" viewBox="0 0 50 50" fill="none" xmlns="http://www.w3.org/2000/svg">
<rect width="50" height="50" fill="#2183ED"/>
<path d="M11.0021 21.6511C10.9725 18.7153 11.2589 15.7847 11.8564 12.9082C12.1216 11.4897 13.5948 10.1001 15.0384 9.78166C16.4231 9.49215 20.4005 9 25.1736 9C29.9464 9 34.1301 9.49215 35.5149 9.78166C36.9584 10.1001 38.4022 11.4897 38.6968 12.9082C38.9915 14.3268 39.4039 16.9613 39.4039 21.6511C39.4451 24.5366 39.1785 27.4183 38.6083 30.2493C38.3432 31.6677 36.8701 33.0574 35.4264 33.3757C34.0711 33.6652 29.9759 34.1285 25.2914 34.1575L17.3366 40.2369V33.7232C16.2758 33.6074 15.4509 33.4627 14.9501 33.3757C13.5063 33.0574 12.0628 31.6677 11.7681 30.2493C11.4735 28.8307 11.0021 26.3409 11.0021 21.6511ZM34.4541 13.8636C33.423 13.6609 29.7696 13.2267 25.1736 13.2267C22.1365 13.2085 19.1027 13.4215 16.0992 13.8636C16.0697 13.8925 16.0402 13.8925 16.0107 13.9215V13.9794C15.4915 16.5041 15.2447 19.0755 15.2742 21.6511C15.2742 25.6751 15.6867 27.8753 15.9518 29.207C15.9812 29.236 16.0107 29.2649 16.0402 29.2649C17.1597 29.4965 20.7247 29.9018 25.1146 29.9018C28.22 29.915 31.3219 29.7022 34.3953 29.2649C34.4248 29.236 34.4541 29.236 34.4836 29.207C34.7488 27.8753 35.1612 25.6751 35.1612 21.6511C35.1612 17.7139 34.8372 15.3689 34.5721 13.9215C34.4836 13.8925 34.4541 13.8925 34.4541 13.8636Z" fill="white"/>
</svg>
