<svg width="37" height="37" viewBox="0 0 37 37" fill="none" xmlns="http://www.w3.org/2000/svg">
<mask id="mask0_1110_1102" style="mask-type:alpha" maskUnits="userSpaceOnUse" x="0" y="0" width="37" height="37">
<rect width="36.23" height="36.23" fill="#D9D9D9"/>
</mask>
<g mask="url(#mask0_1110_1102)">
<path d="M29.2992 31.4451L27.9874 30.1329C27.8905 30.1523 27.8033 30.1669 27.7258 30.1767C27.6486 30.1863 27.5615 30.191 27.4647 30.191H8.47602C7.80048 30.191 7.22508 29.9535 6.74981 29.4785C6.2748 29.0033 6.03729 28.4279 6.03729 27.7523V8.76366C6.03729 8.66679 6.04207 8.57974 6.05163 8.5025C6.06144 8.42501 6.08572 8.34752 6.12447 8.27003L4.7832 6.92008L5.85161 5.85205L30.3763 30.3767L29.2992 31.4451ZM8.47602 28.6815H26.5355L7.54687 9.6928V27.7523C7.54687 28.0233 7.63392 28.246 7.80803 28.4203C7.98239 28.5944 8.20505 28.6815 8.47602 28.6815ZM30.1906 25.9265L28.681 24.4169V12.3082H16.5723L10.3019 6.03773H27.7519C28.4274 6.03773 29.0028 6.27524 29.4781 6.75025C29.9531 7.22552 30.1906 7.80092 30.1906 8.47646V25.9265Z" fill="#2183ED"/>
</g>
</svg>
