<svg width="48" height="48" viewBox="0 0 48 48" fill="none" xmlns="http://www.w3.org/2000/svg">
<path d="M23.641 29.5525C26.9053 29.5525 29.5515 26.9062 29.5515 23.642C29.5515 20.3777 26.9053 17.7314 23.641 17.7314C20.3767 17.7314 17.7305 20.3777 17.7305 23.642C17.7305 26.9062 20.3767 29.5525 23.641 29.5525Z" stroke="black" stroke-width="2.36421"/>
<path d="M18.9139 28.3707L10.6391 36.6454M20.096 20.096L9.45703 9.45703" stroke="black" stroke-width="2.36421" stroke-linejoin="round"/>
<path d="M35.4623 39.0096C37.4209 39.0096 39.0086 37.4219 39.0086 35.4633C39.0086 33.5047 37.4209 31.917 35.4623 31.917C33.5038 31.917 31.916 33.5047 31.916 35.4633C31.916 37.4219 33.5038 39.0096 35.4623 39.0096Z" stroke="black" stroke-width="2.36421"/>
<path d="M42.5561 27.1883C44.5146 27.1883 46.1024 25.6006 46.1024 23.642C46.1024 21.6834 44.5146 20.0957 42.5561 20.0957C40.5975 20.0957 39.0098 21.6834 39.0098 23.642C39.0098 25.6006 40.5975 27.1883 42.5561 27.1883Z" stroke="black" stroke-width="2.36421"/>
<path d="M39.01 23.6421H29.5532M28.3711 28.3705L33.0995 33.0989" stroke="black" stroke-width="2.36421" stroke-linejoin="round"/>
<path d="M40.1918 13.0032C43.4561 13.0032 46.1023 10.3569 46.1023 7.09265C46.1023 3.82836 43.4561 1.18213 40.1918 1.18213C36.9275 1.18213 34.2812 3.82836 34.2812 7.09265C34.2812 10.3569 36.9275 13.0032 40.1918 13.0032Z" stroke="black" stroke-width="2.36421"/>
<path d="M35.4637 11.8213L28.3711 18.9139" stroke="black" stroke-width="2.36421" stroke-linejoin="round"/>
<path d="M7.09123 10.639C9.0498 10.639 10.6375 9.05127 10.6375 7.0927C10.6375 5.13412 9.0498 3.54639 7.09123 3.54639C5.13266 3.54639 3.54492 5.13412 3.54492 7.0927C3.54492 9.05127 5.13266 10.639 7.09123 10.639Z" stroke="black" stroke-width="2.36421"/>
<path d="M7.09216 46.1023C10.3564 46.1023 13.0027 43.4561 13.0027 40.1918C13.0027 36.9275 10.3564 34.2812 7.09216 34.2812C3.82787 34.2812 1.18164 36.9275 1.18164 40.1918C1.18164 43.4561 3.82787 46.1023 7.09216 46.1023Z" stroke="black" stroke-width="2.36421"/>
</svg>
