<svg width="155" height="60" viewBox="0 0 155 60" fill="none" xmlns="http://www.w3.org/2000/svg">
<path d="M55.0868 11.8669C49.0471 13.2614 47.0983 15.2404 45.7257 21.3735C45.5247 22.2706 44.2648 22.2706 44.064 21.3735C42.6908 15.24 40.7422 13.261 34.7029 11.8669C33.8194 11.6629 33.8194 10.3834 34.7029 10.1794C40.7426 8.78497 42.6912 6.80599 44.064 0.672856C44.2648 -0.224285 45.5247 -0.224285 45.7257 0.672856C47.0987 6.80636 49.0475 8.78534 55.0868 10.1794C55.9701 10.3834 55.9701 11.6629 55.0868 11.8669Z" fill="white"/>
<path d="M39.0121 59.7284H10.5498C4.73258 59.7284 0 54.9223 0 49.0147V19.9738C0 14.0661 4.73258 9.26001 10.5498 9.26001H26.0517C26.7904 9.26001 27.3893 9.86825 27.3893 10.6185C27.3893 11.3688 26.7904 11.977 26.0517 11.977H10.5498C6.20797 11.977 2.67544 15.5644 2.67544 19.9738V49.0147C2.67544 53.424 6.20797 57.0114 10.5498 57.0114H39.0121C43.3539 57.0114 46.8865 53.424 46.8865 49.0147V31.166C46.8865 30.4157 47.4854 29.8075 48.2243 29.8075C48.963 29.8075 49.5619 30.4157 49.5619 31.166V49.0147C49.5619 54.9223 44.8293 59.7284 39.0121 59.7284Z" fill="white"/>
<path d="M14.6266 44.2174H10.4274L18.0729 22.575H22.9295L30.5856 44.2174H26.3865L20.5861 27.0133H20.4163L14.6266 44.2174ZM14.7644 35.7316H26.2167V38.8807H14.7644V35.7316Z" fill="white"/>
<path d="M37.38 22.575V44.2174H33.4459V22.575H37.38Z" fill="white"/>
<path d="M64.2484 23.2146V11.3999H68.4597C69.3789 11.3999 70.1404 11.5672 70.7442 11.9018C71.348 12.2364 71.7999 12.694 72.0999 13.2748C72.3998 13.8517 72.5498 14.5016 72.5498 15.2247C72.5498 15.9515 72.3979 16.6053 72.0941 17.1861C71.7941 17.763 71.3403 18.2206 70.7326 18.5591C70.1288 18.8937 69.3692 19.061 68.4539 19.061H65.5579V17.5495H68.2924C68.8731 17.5495 69.3442 17.4495 69.7058 17.2495C70.0673 17.0457 70.3326 16.7688 70.5019 16.4188C70.6711 16.0688 70.7557 15.6708 70.7557 15.2247C70.7557 14.7785 70.6711 14.3824 70.5019 14.0363C70.3326 13.6901 70.0654 13.419 69.7 13.2228C69.3385 13.0267 68.8616 12.9286 68.2693 12.9286H66.031V23.2146H64.2484ZM78.1226 23.3934C77.2919 23.3934 76.5669 23.2031 75.9477 22.8223C75.3285 22.4416 74.8478 21.9089 74.5055 21.2243C74.1632 20.5397 73.9921 19.7398 73.9921 18.8245C73.9921 17.9053 74.1632 17.1015 74.5055 16.4131C74.8478 15.7246 75.3285 15.19 75.9477 14.8093C76.5669 14.4285 77.2919 14.2382 78.1226 14.2382C78.9533 14.2382 79.6783 14.4285 80.2975 14.8093C80.9167 15.19 81.3974 15.7246 81.7397 16.4131C82.082 17.1015 82.2531 17.9053 82.2531 18.8245C82.2531 19.7398 82.082 20.5397 81.7397 21.2243C81.3974 21.9089 80.9167 22.4416 80.2975 22.8223C79.6783 23.2031 78.9533 23.3934 78.1226 23.3934ZM78.1284 21.9454C78.6668 21.9454 79.1129 21.8031 79.4668 21.5185C79.8206 21.2339 80.0821 20.8551 80.2513 20.3821C80.4244 19.909 80.5109 19.3879 80.5109 18.8187C80.5109 18.2533 80.4244 17.7341 80.2513 17.2611C80.0821 16.7842 79.8206 16.4015 79.4668 16.1131C79.1129 15.8246 78.6668 15.6804 78.1284 15.6804C77.5861 15.6804 77.1361 15.8246 76.7784 16.1131C76.4246 16.4015 76.1612 16.7842 75.9881 17.2611C75.8189 17.7341 75.7343 18.2533 75.7343 18.8187C75.7343 19.3879 75.8189 19.909 75.9881 20.3821C76.1612 20.8551 76.4246 21.2339 76.7784 21.5185C77.1361 21.8031 77.5861 21.9454 78.1284 21.9454ZM85.8299 23.2146L83.2223 14.3535H85.0049L86.7414 20.8609H86.8279L88.5701 14.3535H90.3527L92.0834 20.832H92.1699L93.8948 14.3535H95.6774L93.0756 23.2146H91.3161L89.5162 16.8169H89.3835L87.5836 23.2146H85.8299ZM100.864 23.3934C99.9906 23.3934 99.2388 23.2069 98.608 22.8339C97.9811 22.4569 97.4965 21.9281 97.1543 21.2474C96.8158 20.5628 96.6466 19.7609 96.6466 18.8418C96.6466 17.9341 96.8158 17.1342 97.1543 16.4419C97.4965 15.7496 97.9734 15.2093 98.5849 14.8208C99.2003 14.4324 99.9195 14.2382 100.743 14.2382C101.242 14.2382 101.727 14.3209 102.196 14.4862C102.665 14.6516 103.087 14.9112 103.46 15.265C103.833 15.6189 104.127 16.0785 104.342 16.6438C104.558 17.2053 104.665 17.888 104.665 18.6918V19.3033H97.6215V18.011H102.975C102.975 17.5572 102.883 17.1553 102.698 16.8053C102.514 16.4515 102.254 16.1727 101.919 15.9688C101.589 15.765 101.2 15.6631 100.754 15.6631C100.269 15.6631 99.8464 15.7823 99.4849 16.0208C99.1272 16.2554 98.8503 16.563 98.6542 16.9438C98.4619 17.3207 98.3657 17.7303 98.3657 18.1726V19.1821C98.3657 19.7744 98.4696 20.2782 98.6772 20.6936C98.8888 21.1089 99.183 21.4262 99.5599 21.6455C99.9368 21.8608 100.377 21.9685 100.881 21.9685C101.208 21.9685 101.506 21.9224 101.775 21.8301C102.044 21.7339 102.277 21.5916 102.473 21.4032C102.669 21.2147 102.819 20.982 102.923 20.7051L104.556 20.9993C104.425 21.4801 104.19 21.9012 103.852 22.2627C103.517 22.6204 103.096 22.8992 102.589 23.0992C102.085 23.2954 101.51 23.3934 100.864 23.3934ZM106.579 23.2146V14.3535H108.246V15.7612H108.339C108.5 15.2843 108.785 14.9093 109.193 14.6362C109.604 14.3593 110.069 14.2209 110.589 14.2209C110.696 14.2209 110.823 14.2247 110.969 14.2324C111.119 14.2401 111.237 14.2497 111.321 14.2612V15.9112C111.252 15.8919 111.129 15.8708 110.952 15.8477C110.775 15.8208 110.598 15.8073 110.421 15.8073C110.014 15.8073 109.65 15.8938 109.331 16.0669C109.016 16.2361 108.766 16.4727 108.581 16.7765C108.396 17.0765 108.304 17.4188 108.304 17.8034V23.2146H106.579ZM116.316 23.3934C115.443 23.3934 114.691 23.2069 114.06 22.8339C113.433 22.4569 112.949 21.9281 112.606 21.2474C112.268 20.5628 112.099 19.7609 112.099 18.8418C112.099 17.9341 112.268 17.1342 112.606 16.4419C112.949 15.7496 113.425 15.2093 114.037 14.8208C114.652 14.4324 115.372 14.2382 116.195 14.2382C116.695 14.2382 117.179 14.3209 117.648 14.4862C118.118 14.6516 118.539 14.9112 118.912 15.265C119.285 15.6189 119.579 16.0785 119.794 16.6438C120.01 17.2053 120.117 17.888 120.117 18.6918V19.3033H113.074V18.011H118.427C118.427 17.5572 118.335 17.1553 118.15 16.8053C117.966 16.4515 117.706 16.1727 117.371 15.9688C117.041 15.765 116.652 15.6631 116.206 15.6631C115.721 15.6631 115.298 15.7823 114.937 16.0208C114.579 16.2554 114.302 16.563 114.106 16.9438C113.914 17.3207 113.818 17.7303 113.818 18.1726V19.1821C113.818 19.7744 113.922 20.2782 114.129 20.6936C114.341 21.1089 114.635 21.4262 115.012 21.6455C115.389 21.8608 115.829 21.9685 116.333 21.9685C116.66 21.9685 116.958 21.9224 117.227 21.8301C117.496 21.7339 117.729 21.5916 117.925 21.4032C118.121 21.2147 118.271 20.982 118.375 20.7051L120.008 20.9993C119.877 21.4801 119.642 21.9012 119.304 22.2627C118.969 22.6204 118.548 22.8992 118.041 23.0992C117.537 23.2954 116.962 23.3934 116.316 23.3934ZM125.348 23.3877C124.633 23.3877 123.995 23.205 123.433 22.8396C122.875 22.4704 122.437 21.9454 122.118 21.2647C121.802 20.5801 121.645 19.759 121.645 18.8014C121.645 17.8437 121.804 17.0246 122.124 16.3438C122.447 15.6631 122.889 15.142 123.45 14.7804C124.012 14.4189 124.648 14.2382 125.36 14.2382C125.91 14.2382 126.352 14.3305 126.687 14.5151C127.025 14.6958 127.287 14.9074 127.471 15.1497C127.66 15.392 127.806 15.6054 127.91 15.79H128.014V11.3999H129.739V23.2146H128.054V21.8358H127.91C127.806 22.0243 127.656 22.2397 127.46 22.4819C127.267 22.7242 127.002 22.9358 126.664 23.1165C126.325 23.2973 125.887 23.3877 125.348 23.3877ZM125.729 21.9166C126.225 21.9166 126.644 21.7858 126.987 21.5243C127.333 21.2589 127.594 20.8917 127.771 20.4224C127.952 19.9532 128.042 19.4071 128.042 18.7841C128.042 18.1687 127.954 17.6303 127.777 17.1688C127.6 16.7073 127.341 16.3477 126.998 16.09C126.656 15.8323 126.233 15.7035 125.729 15.7035C125.21 15.7035 124.777 15.8381 124.431 16.1073C124.085 16.3765 123.823 16.7438 123.647 17.2092C123.473 17.6745 123.387 18.1995 123.387 18.7841C123.387 19.3763 123.475 19.909 123.652 20.3821C123.829 20.8551 124.091 21.2301 124.437 21.507C124.787 21.7801 125.218 21.9166 125.729 21.9166ZM64.2484 41.2146V29.3999H66.031V39.6801H71.3845V41.2146H64.2484ZM77.0986 41.3934C76.2256 41.3934 75.4737 41.2069 74.843 40.8339C74.2161 40.4569 73.7315 39.9281 73.3892 39.2474C73.0508 38.5628 72.8815 37.7609 72.8815 36.8418C72.8815 35.9341 73.0508 35.1342 73.3892 34.4419C73.7315 33.7496 74.2084 33.2093 74.8199 32.8208C75.4353 32.4324 76.1544 32.2382 76.9775 32.2382C77.4774 32.2382 77.962 32.3209 78.4312 32.4862C78.9004 32.6516 79.3216 32.9112 79.6946 33.265C80.0677 33.6189 80.3619 34.0785 80.5773 34.6438C80.7927 35.2053 80.9003 35.888 80.9003 36.6918V37.3033H73.8565V36.011H79.21C79.21 35.5572 79.1177 35.1553 78.9331 34.8053C78.7485 34.4515 78.4889 34.1727 78.1543 33.9688C77.8236 33.765 77.4351 33.6631 76.989 33.6631C76.5044 33.6631 76.0814 33.7823 75.7199 34.0208C75.3622 34.2554 75.0853 34.563 74.8891 34.9438C74.6968 35.3207 74.6007 35.7303 74.6007 36.1726V37.1821C74.6007 37.7744 74.7045 38.2782 74.9122 38.6936C75.1237 39.1089 75.4179 39.4262 75.7948 39.6455C76.1718 39.8608 76.6121 39.9685 77.1159 39.9685C77.4428 39.9685 77.7409 39.9224 78.0101 39.8301C78.2793 39.7339 78.512 39.5916 78.7082 39.4032C78.9043 39.2147 79.0543 38.982 79.1581 38.7051L80.7907 38.9993C80.66 39.4801 80.4254 39.9012 80.0869 40.2627C79.7523 40.6204 79.3312 40.8992 78.8235 41.0992C78.3197 41.2954 77.7447 41.3934 77.0986 41.3934ZM85.3929 41.4107C84.8314 41.4107 84.3237 41.3069 83.8699 41.0992C83.4161 40.8877 83.0565 40.5819 82.7911 40.182C82.5296 39.782 82.3988 39.2916 82.3988 38.7109C82.3988 38.2109 82.495 37.7994 82.6873 37.4763C82.8796 37.1533 83.1392 36.8975 83.4661 36.7091C83.793 36.5206 84.1583 36.3783 84.5622 36.2822C84.966 36.186 85.3775 36.113 85.7967 36.063C86.3274 36.0014 86.7582 35.9514 87.0889 35.913C87.4197 35.8707 87.6601 35.8034 87.8101 35.7111C87.96 35.6188 88.035 35.4688 88.035 35.2611V35.2207C88.035 34.7169 87.8927 34.3265 87.6081 34.0496C87.3274 33.7727 86.9082 33.6342 86.3505 33.6342C85.7698 33.6342 85.3121 33.7631 84.9775 34.0208C84.6468 34.2746 84.4179 34.5573 84.291 34.8688L82.67 34.4996C82.8622 33.9612 83.143 33.5266 83.5122 33.1958C83.8853 32.8612 84.3141 32.6189 84.7987 32.4689C85.2833 32.3151 85.7929 32.2382 86.3274 32.2382C86.6813 32.2382 87.0562 32.2805 87.4524 32.3651C87.8524 32.4459 88.2254 32.5958 88.5716 32.8151C88.9215 33.0343 89.2081 33.3477 89.4311 33.7554C89.6542 34.1592 89.7657 34.6842 89.7657 35.3303V41.2146H88.0812V40.0031H88.012C87.9004 40.2262 87.7331 40.4454 87.5101 40.6608C87.287 40.8762 87.0005 41.055 86.6505 41.1973C86.3005 41.3396 85.8813 41.4107 85.3929 41.4107ZM85.7679 40.0262C86.2448 40.0262 86.6524 39.932 86.9909 39.7435C87.3332 39.5551 87.5928 39.3089 87.7697 39.0051C87.9504 38.6974 88.0408 38.3686 88.0408 38.0186V36.8764C87.9793 36.9379 87.8601 36.9956 87.6831 37.0494C87.5101 37.0994 87.312 37.1437 87.0889 37.1821C86.8659 37.2167 86.6486 37.2494 86.4371 37.2802C86.2255 37.3071 86.0486 37.3302 85.9063 37.3494C85.5717 37.3917 85.266 37.4629 84.9891 37.5629C84.716 37.6629 84.4968 37.8071 84.3314 37.9955C84.1699 38.1802 84.0891 38.4263 84.0891 38.734C84.0891 39.1609 84.2468 39.4839 84.5622 39.7031C84.8775 39.9185 85.2794 40.0262 85.7679 40.0262ZM92.0632 41.2146V32.3535H93.7304V33.7612H93.8227C93.9842 33.2843 94.2688 32.9093 94.6765 32.6362C95.088 32.3593 95.5534 32.2209 96.0726 32.2209C96.1803 32.2209 96.3072 32.2247 96.4533 32.2324C96.6033 32.2401 96.7206 32.2497 96.8052 32.2612V33.9112C96.736 33.8919 96.6129 33.8708 96.436 33.8477C96.2591 33.8208 96.0822 33.8073 95.9053 33.8073C95.4976 33.8073 95.1342 33.8938 94.815 34.0669C94.4996 34.2361 94.2496 34.4727 94.065 34.7765C93.8804 35.0765 93.7881 35.4188 93.7881 35.8034V41.2146H92.0632ZM100.023 35.9534V41.2146H98.2979V32.3535H99.9536V33.7958H100.063C100.267 33.3266 100.586 32.9497 101.021 32.6651C101.459 32.3805 102.011 32.2382 102.677 32.2382C103.28 32.2382 103.809 32.3651 104.263 32.6189C104.717 32.8689 105.069 33.242 105.319 33.7381C105.569 34.2342 105.694 34.8476 105.694 35.5784V41.2146H103.969V35.7861C103.969 35.1438 103.801 34.6419 103.467 34.2804C103.132 33.915 102.673 33.7323 102.088 33.7323C101.688 33.7323 101.332 33.8189 101.021 33.9919C100.713 34.165 100.469 34.4188 100.288 34.7534C100.111 35.0842 100.023 35.4841 100.023 35.9534ZM108.007 41.2146V32.3535H109.732V41.2146H108.007ZM108.878 30.9863C108.578 30.9863 108.32 30.8863 108.105 30.6863C107.894 30.4825 107.788 30.2402 107.788 29.9594C107.788 29.6748 107.894 29.4326 108.105 29.2326C108.32 29.0287 108.578 28.9268 108.878 28.9268C109.178 28.9268 109.434 29.0287 109.645 29.2326C109.861 29.4326 109.968 29.6748 109.968 29.9594C109.968 30.2402 109.861 30.4825 109.645 30.6863C109.434 30.8863 109.178 30.9863 108.878 30.9863ZM113.777 35.9534V41.2146H112.052V32.3535H113.708V33.7958H113.818C114.022 33.3266 114.341 32.9497 114.775 32.6651C115.214 32.3805 115.766 32.2382 116.431 32.2382C117.035 32.2382 117.564 32.3651 118.018 32.6189C118.471 32.8689 118.823 33.242 119.073 33.7381C119.323 34.2342 119.448 34.8476 119.448 35.5784V41.2146H117.723V35.7861C117.723 35.1438 117.556 34.6419 117.221 34.2804C116.887 33.915 116.427 33.7323 115.843 33.7323C115.443 33.7323 115.087 33.8189 114.775 33.9919C114.468 34.165 114.224 34.4188 114.043 34.7534C113.866 35.0842 113.777 35.4841 113.777 35.9534ZM125.477 44.7221C124.773 44.7221 124.167 44.6298 123.66 44.4452C123.156 44.2606 122.744 44.0164 122.425 43.7125C122.106 43.4087 121.867 43.076 121.71 42.7145L123.192 42.103C123.296 42.2722 123.435 42.4511 123.608 42.6395C123.785 42.8318 124.023 42.9953 124.323 43.1299C124.627 43.2645 125.017 43.3318 125.494 43.3318C126.148 43.3318 126.688 43.1722 127.115 42.853C127.542 42.5376 127.755 42.0338 127.755 41.3415V39.5993H127.646C127.542 39.7878 127.392 39.9974 127.196 40.2281C127.004 40.4589 126.738 40.6589 126.4 40.8281C126.061 40.9973 125.621 41.0819 125.079 41.0819C124.379 41.0819 123.748 40.9185 123.186 40.5916C122.629 40.2608 122.187 39.7743 121.86 39.132C121.537 38.4859 121.375 37.6917 121.375 36.7495C121.375 35.8072 121.535 34.9996 121.854 34.3265C122.177 33.6535 122.619 33.1381 123.181 32.7804C123.742 32.4189 124.379 32.2382 125.09 32.2382C125.64 32.2382 126.084 32.3305 126.423 32.5151C126.761 32.6958 127.025 32.9074 127.213 33.1497C127.405 33.392 127.554 33.6054 127.657 33.79H127.784V32.3535H129.475V41.4107C129.475 42.1722 129.298 42.7972 128.944 43.2856C128.59 43.7741 128.111 44.1356 127.507 44.3702C126.907 44.6048 126.231 44.7221 125.477 44.7221ZM125.459 39.6512C125.956 39.6512 126.375 39.5358 126.717 39.3051C127.063 39.0705 127.325 38.7359 127.502 38.3013C127.682 37.8629 127.773 37.3379 127.773 36.7264C127.773 36.1303 127.684 35.6053 127.507 35.1515C127.33 34.6977 127.071 34.3438 126.729 34.09C126.386 33.8323 125.963 33.7035 125.459 33.7035C124.94 33.7035 124.508 33.8381 124.161 34.1073C123.815 34.3727 123.554 34.7342 123.377 35.1919C123.204 35.6495 123.117 36.161 123.117 36.7264C123.117 37.3071 123.206 37.8167 123.383 38.2551C123.56 38.6936 123.821 39.0359 124.167 39.282C124.517 39.5282 124.948 39.6512 125.459 39.6512ZM64.2484 59.2146V47.3999H68.4597C69.3789 47.3999 70.1404 47.5672 70.7442 47.9018C71.348 48.2364 71.7999 48.694 72.0999 49.2748C72.3998 49.8517 72.5498 50.5016 72.5498 51.2247C72.5498 51.9515 72.3979 52.6053 72.0941 53.1861C71.7941 53.763 71.3403 54.2206 70.7326 54.5591C70.1288 54.8937 69.3692 55.061 68.4539 55.061H65.5579V53.5495H68.2924C68.8731 53.5495 69.3442 53.4495 69.7058 53.2495C70.0673 53.0457 70.3326 52.7688 70.5019 52.4188C70.6711 52.0688 70.7557 51.6708 70.7557 51.2247C70.7557 50.7785 70.6711 50.3824 70.5019 50.0363C70.3326 49.6901 70.0654 49.419 69.7 49.2228C69.3385 49.0267 68.8616 48.9286 68.2693 48.9286H66.031V59.2146H64.2484ZM76.2261 47.3999V59.2146H74.5012V47.3999H76.2261ZM81.1253 59.4107C80.5638 59.4107 80.0562 59.3069 79.6023 59.0992C79.1485 58.8877 78.7889 58.5819 78.5235 58.182C78.262 57.782 78.1313 57.2916 78.1313 56.7109C78.1313 56.2109 78.2274 55.7994 78.4197 55.4763C78.612 55.1533 78.8716 54.8975 79.1985 54.7091C79.5254 54.5206 79.8908 54.3783 80.2946 54.2822C80.6984 54.186 81.1099 54.113 81.5291 54.063C82.0599 54.0014 82.4906 53.9514 82.8214 53.913C83.1521 53.8707 83.3925 53.8034 83.5425 53.7111C83.6925 53.6188 83.7675 53.4688 83.7675 53.2611V53.2207C83.7675 52.7169 83.6252 52.3265 83.3406 52.0496C83.0598 51.7727 82.6406 51.6342 82.083 51.6342C81.5022 51.6342 81.0446 51.7631 80.71 52.0208C80.3792 52.2746 80.1504 52.5573 80.0235 52.8688L78.4024 52.4996C78.5947 51.9612 78.8754 51.5266 79.2447 51.1958C79.6177 50.8612 80.0465 50.6189 80.5311 50.4689C81.0157 50.3151 81.5253 50.2382 82.0599 50.2382C82.4137 50.2382 82.7887 50.2805 83.1848 50.3651C83.5848 50.4459 83.9579 50.5958 84.304 50.8151C84.654 51.0343 84.9405 51.3477 85.1636 51.7554C85.3866 52.1592 85.4982 52.6842 85.4982 53.3303V59.2146H83.8136V58.0031H83.7444C83.6329 58.2262 83.4656 58.4454 83.2425 58.6608C83.0195 58.8762 82.7329 59.055 82.3829 59.1973C82.033 59.3396 81.6138 59.4107 81.1253 59.4107ZM81.5003 58.0262C81.9772 58.0262 82.3849 57.932 82.7233 57.7435C83.0656 57.5551 83.3252 57.3089 83.5021 57.0051C83.6829 56.6974 83.7733 56.3686 83.7733 56.0186V54.8764C83.7117 54.9379 83.5925 54.9956 83.4156 55.0494C83.2425 55.0994 83.0445 55.1437 82.8214 55.1821C82.5983 55.2167 82.381 55.2494 82.1695 55.2802C81.958 55.3071 81.7811 55.3302 81.6388 55.3494C81.3042 55.3917 80.9984 55.4629 80.7215 55.5629C80.4484 55.6629 80.2292 55.8071 80.0638 55.9955C79.9023 56.1802 79.8216 56.4263 79.8216 56.734C79.8216 57.1609 79.9792 57.4839 80.2946 57.7031C80.61 57.9185 81.0119 58.0262 81.5003 58.0262ZM91.9319 50.3535V51.7381H87.0918V50.3535H91.9319ZM88.3898 48.2306H90.1147V56.6128C90.1147 56.9474 90.1647 57.1993 90.2647 57.3685C90.3647 57.5339 90.4936 57.6474 90.6512 57.7089C90.8128 57.7666 90.9878 57.7954 91.1762 57.7954C91.3147 57.7954 91.4358 57.7858 91.5397 57.7666C91.6435 57.7474 91.7243 57.732 91.782 57.7205L92.0935 59.1454C91.9935 59.1838 91.8512 59.2223 91.6666 59.2608C91.482 59.3031 91.2512 59.3261 90.9743 59.33C90.5205 59.3377 90.0974 59.2569 89.7051 59.0877C89.3129 58.9185 88.9956 58.6569 88.7533 58.3031C88.511 57.9493 88.3898 57.5051 88.3898 56.9705V48.2306ZM98.0571 50.3535V51.7381H93.0497V50.3535H98.0571ZM94.4227 59.2146V49.3267C94.4227 48.7729 94.5438 48.3133 94.7861 47.9479C95.0284 47.5787 95.3495 47.3037 95.7495 47.123C96.1495 46.9384 96.5841 46.846 97.0533 46.846C97.3994 46.846 97.6956 46.8749 97.9417 46.9326C98.1878 46.9864 98.3705 47.0364 98.4898 47.0826L98.0859 48.4787C98.0052 48.4556 97.9013 48.4287 97.7744 48.3979C97.6475 48.3633 97.4937 48.346 97.3129 48.346C96.8937 48.346 96.5937 48.4498 96.4129 48.6575C96.236 48.8652 96.1476 49.1652 96.1476 49.5574V59.2146H94.4227ZM103.22 59.3934C102.39 59.3934 101.665 59.2031 101.045 58.8223C100.426 58.4416 99.9454 57.9089 99.6032 57.2243C99.2609 56.5397 99.0897 55.7398 99.0897 54.8245C99.0897 53.9053 99.2609 53.1015 99.6032 52.4131C99.9454 51.7246 100.426 51.19 101.045 50.8093C101.665 50.4285 102.39 50.2382 103.22 50.2382C104.051 50.2382 104.776 50.4285 105.395 50.8093C106.014 51.19 106.495 51.7246 106.837 52.4131C107.18 53.1015 107.351 53.9053 107.351 54.8245C107.351 55.7398 107.18 56.5397 106.837 57.2243C106.495 57.9089 106.014 58.4416 105.395 58.8223C104.776 59.2031 104.051 59.3934 103.22 59.3934ZM103.226 57.9454C103.764 57.9454 104.211 57.8031 104.564 57.5185C104.918 57.2339 105.18 56.8551 105.349 56.3821C105.522 55.909 105.609 55.3879 105.609 54.8187C105.609 54.2533 105.522 53.7341 105.349 53.2611C105.18 52.7842 104.918 52.4015 104.564 52.1131C104.211 51.8246 103.764 51.6804 103.226 51.6804C102.684 51.6804 102.234 51.8246 101.876 52.1131C101.522 52.4015 101.259 52.7842 101.086 53.2611C100.917 53.7341 100.832 54.2533 100.832 54.8187C100.832 55.3879 100.917 55.909 101.086 56.3821C101.259 56.8551 101.522 57.2339 101.876 57.5185C102.234 57.8031 102.684 57.9454 103.226 57.9454ZM109.276 59.2146V50.3535H110.943V51.7612H111.036C111.197 51.2843 111.482 50.9093 111.889 50.6362C112.301 50.3593 112.766 50.2209 113.286 50.2209C113.393 50.2209 113.52 50.2247 113.666 50.2324C113.816 50.2401 113.934 50.2497 114.018 50.2612V51.9112C113.949 51.8919 113.826 51.8708 113.649 51.8477C113.472 51.8208 113.295 51.8073 113.118 51.8073C112.711 51.8073 112.347 51.8938 112.028 52.0669C111.713 52.2361 111.463 52.4727 111.278 52.7765C111.093 53.0765 111.001 53.4188 111.001 53.8034V59.2146H109.276ZM115.511 59.2146V50.3535H117.167V51.7958H117.276C117.461 51.3073 117.763 50.9266 118.182 50.6535C118.601 50.3766 119.103 50.2382 119.688 50.2382C120.28 50.2382 120.776 50.3766 121.176 50.6535C121.58 50.9304 121.878 51.3112 122.07 51.7958H122.162C122.374 51.3227 122.711 50.9458 123.172 50.6651C123.634 50.3805 124.184 50.2382 124.822 50.2382C125.626 50.2382 126.281 50.4901 126.789 50.9939C127.301 51.4977 127.556 52.2573 127.556 53.2726V59.2146H125.832V53.4341C125.832 52.8342 125.668 52.3996 125.341 52.1304C125.014 51.8612 124.624 51.7265 124.17 51.7265C123.609 51.7265 123.172 51.8996 122.861 52.2458C122.549 52.588 122.393 53.0284 122.393 53.5668V59.2146H120.674V53.3245C120.674 52.8438 120.524 52.4573 120.224 52.165C119.924 51.8727 119.534 51.7265 119.053 51.7265C118.726 51.7265 118.424 51.8131 118.147 51.9862C117.874 52.1554 117.653 52.3919 117.484 52.6957C117.319 52.9996 117.236 53.3515 117.236 53.7514V59.2146H115.511Z" fill="white"/>
</svg>
